<svg width="20" height="20" viewBox="0 0 20 20" fill="none" xmlns="http://www.w3.org/2000/svg">
<path d="M16.538 2.919L16.6031 2.42325C16.6026 2.42319 16.6022 2.42314 16.6018 2.42308C16.6013 2.42302 16.6009 2.42297 16.6004 2.42291L16.538 2.919ZM16.538 2.919C16.6929 2.93849 16.8467 2.96552 16.999 3L16.4666 2.91006C16.4906 2.91293 16.5144 2.9159 16.538 2.919ZM0.561193 3.35143L0.561286 3.35094C0.692112 2.65939 1.02834 2.02257 1.5258 1.52526C2.02341 1.02781 2.6594 0.691886 3.35079 0.561316L3.35143 0.561193C3.66147 0.502218 4.04412 0.5 4.95 0.5C5.34466 0.5 5.51212 0.500482 5.66998 0.514878C6.37037 0.580529 7.03472 0.855703 7.5764 1.30452C7.69876 1.40654 7.8165 1.5236 8.09645 1.80355L8.64645 2.35355L8.64666 2.35377C8.67056 2.37764 8.69416 2.40122 8.71748 2.42451C9.46969 3.17603 9.92229 3.62821 10.4686 3.93174C10.7703 4.09992 11.0904 4.2328 11.4226 4.32774L11.4232 4.32793C12.0289 4.50017 12.6713 4.50011 13.7473 4.5L13.828 4.5H14.202C15.5311 4.5 16.4813 4.50093 17.208 4.59223C17.9221 4.68194 18.3503 4.85191 18.6713 5.14049C18.7366 5.19946 18.7987 5.26186 18.8574 5.32742L18.8585 5.3286C19.1476 5.64964 19.3178 6.07782 19.4077 6.79203C19.4991 7.5187 19.5 8.46888 19.5 9.798V12C19.5 13.8996 19.4989 15.2742 19.358 16.3224C19.2189 17.3561 18.9521 17.9972 18.4746 18.4743L18.4743 18.4746C17.9972 18.9521 17.3561 19.2189 16.3224 19.358C15.2742 19.4989 13.8996 19.5 12 19.5H8C6.10036 19.5 4.72582 19.4989 3.67765 19.358C2.64385 19.2189 2.00279 18.9521 1.5257 18.4746L1.5254 18.4743C1.04791 17.9972 0.78108 17.3561 0.642038 16.3224C0.501063 15.2742 0.5 13.8996 0.5 12V4.95C0.5 4.0451 0.502219 3.66147 0.561193 3.35143ZM11.837 2.06801L11.836 2.06742C11.6744 1.97459 11.5235 1.84561 11.181 1.5H14.283C14.6616 1.5 14.8052 1.50104 14.9188 1.5156C15.4666 1.59154 15.9448 1.91594 16.2371 2.38471C15.6355 2.33499 14.9256 2.33499 14.1197 2.335H14.088H13.754C12.7803 2.335 12.5096 2.32507 12.2706 2.25448L12.129 2.734L12.2712 2.25464C12.1196 2.2097 11.9739 2.14706 11.837 2.06801ZM11 6.75C10.6685 6.75 10.3505 6.8817 10.1161 7.11612C9.8817 7.35054 9.75 7.66848 9.75 8C9.75 8.33152 9.8817 8.64946 10.1161 8.88388C10.3505 9.1183 10.6685 9.25 11 9.25H16C16.3315 9.25 16.6495 9.1183 16.8839 8.88388C17.1183 8.64946 17.25 8.33152 17.25 8C17.25 7.66848 17.1183 7.35054 16.8839 7.11612C16.6495 6.8817 16.3315 6.75 16 6.75H11Z" stroke="#999999"/>
</svg>
