<svg width="31" height="31" viewBox="0 0 31 31" fill="none" xmlns="http://www.w3.org/2000/svg">
<g clip-path="url(#clip0_278_1191)">
<path d="M30.1092 15.5004C30.1092 14.2714 30.0071 13.3745 29.7863 12.4443H15.4238V17.9918H23.8542C23.6843 19.3704 22.7665 21.4466 20.7268 22.8417L20.6982 23.0275L25.2394 26.4652L25.554 26.4959C28.4434 23.8882 30.1092 20.0514 30.1092 15.5004Z" fill="#4285F4"/>
<path d="M15.4234 30.117C19.5536 30.117 23.021 28.7882 25.5536 26.4962L20.7264 22.842C19.4347 23.7223 17.7009 24.3368 15.4234 24.3368C11.3782 24.3368 7.9448 21.7292 6.7209 18.125L6.5415 18.1399L1.81956 21.7109L1.75781 21.8787C4.27334 26.7618 9.44043 30.117 15.4234 30.117Z" fill="#34A853"/>
<path d="M6.7217 18.1242C6.39877 17.1941 6.21187 16.1975 6.21187 15.1677C6.21187 14.1379 6.39877 13.1414 6.70471 12.2113L6.69616 12.0132L1.91505 8.38477L1.75862 8.45748C0.721853 10.4839 0.126953 12.7594 0.126953 15.1677C0.126953 17.5761 0.721853 19.8515 1.75862 21.8779L6.7217 18.1242Z" fill="#FBBC05"/>
<path d="M15.4234 5.99976C18.2958 5.99976 20.2334 7.21224 21.3383 8.22549L25.6555 4.10633C23.0041 1.69797 19.5536 0.219727 15.4234 0.219727C9.44042 0.219727 4.27333 3.5748 1.75781 8.45793L6.7039 12.2117C7.94479 8.60747 11.3781 5.99976 15.4234 5.99976Z" fill="#EB4335"/>
</g>
<defs>
<clipPath id="clip0_278_1191">
<rect width="30" height="30" fill="white" transform="translate(0.125 0.219727)"/>
</clipPath>
</defs>
</svg>
