<svg width="24" height="24" viewBox="0 0 24 24" fill="none" xmlns="http://www.w3.org/2000/svg">
<mask id="mask0_278_1787" style="mask-type:luminance" maskUnits="userSpaceOnUse" x="0" y="0" width="24" height="24">
<path d="M0 0H24V24H0V0Z" fill="white"/>
</mask>
<g mask="url(#mask0_278_1787)">
<path fill-rule="evenodd" clip-rule="evenodd" d="M2.03434 3.25C2.36434 1.029 4.13434 -0.75 6.38034 -0.75C7.72534 -0.75 8.91334 -0.1 9.70934 0.892C9.77371 0.968509 9.82213 1.05712 9.85175 1.15261C9.88138 1.2481 9.89161 1.34855 9.88184 1.44806C9.87208 1.54756 9.84252 1.64411 9.7949 1.73203C9.74728 1.81994 9.68257 1.89745 9.60456 1.95999C9.52655 2.02253 9.43683 2.06884 9.34066 2.0962C9.24449 2.12356 9.14383 2.13141 9.04458 2.1193C8.94533 2.10719 8.84951 2.07536 8.76274 2.02568C8.67598 1.97599 8.60002 1.90946 8.53934 1.83C7.99734 1.154 7.22334 0.75 6.37934 0.75C5.05334 0.75 3.85934 1.78 3.55334 3.256C3.68965 3.27333 3.81858 3.32778 3.92606 3.41339C4.03353 3.49901 4.11542 3.6125 4.16278 3.74149C4.21014 3.87047 4.22116 4.00999 4.19463 4.14481C4.1681 4.27963 4.10505 4.40458 4.01234 4.506L3.28234 5.306C3.21207 5.38301 3.1265 5.44453 3.03111 5.48662C2.93572 5.52871 2.83261 5.55045 2.72834 5.55045C2.62408 5.55045 2.52097 5.52871 2.42558 5.48662C2.33019 5.44453 2.24462 5.38301 2.17434 5.306L1.44434 4.506C1.34415 4.39633 1.27878 4.25938 1.25652 4.11251C1.23426 3.96564 1.25611 3.81547 1.31931 3.68103C1.38251 3.5466 1.48421 3.43396 1.61151 3.3574C1.7388 3.28084 1.88597 3.24281 2.03434 3.25ZM12.2493 2C12.2496 1.90151 12.2693 1.80403 12.3072 1.71314C12.3451 1.62225 12.4006 1.53971 12.4704 1.47025C12.5403 1.4008 12.6231 1.34577 12.7142 1.30832C12.8053 1.27088 12.9029 1.25174 13.0013 1.252C14.5483 1.256 15.8013 1.282 16.8083 1.452C17.8363 1.627 18.6803 1.964 19.3583 2.642C20.1063 3.391 20.4383 4.34 20.5963 5.512C20.7493 6.652 20.7493 8.107 20.7493 9.945V14.057C20.7493 15.895 20.7493 17.351 20.5963 18.49C20.4383 19.662 20.1063 20.611 19.3583 21.36C18.6093 22.108 17.6603 22.44 16.4883 22.598C15.3483 22.751 13.8933 22.751 12.0553 22.751H11.9433C10.1053 22.751 8.64934 22.751 7.51034 22.598C6.33835 22.44 5.38934 22.108 4.64034 21.36C3.89234 20.611 3.56034 19.662 3.40234 18.49C3.24934 17.35 3.24934 15.895 3.24934 14.057V11.002C3.24934 10.8031 3.32836 10.6123 3.46901 10.4717C3.60967 10.331 3.80043 10.252 3.99934 10.252C4.19826 10.252 4.38902 10.331 4.52968 10.4717C4.67033 10.6123 4.74934 10.8031 4.74934 11.002V14C4.74934 15.907 4.75134 17.262 4.88934 18.29C5.02434 19.295 5.27835 19.875 5.70134 20.298C6.12434 20.721 6.70434 20.975 7.71034 21.11C8.73834 21.248 10.0923 21.25 11.9993 21.25C13.9063 21.25 15.2603 21.248 16.2893 21.11C17.2943 20.975 17.8743 20.721 18.2973 20.298C18.7203 19.875 18.9743 19.295 19.1093 18.289C19.2473 17.262 19.2493 15.907 19.2493 14V10C19.2493 8.093 19.2473 6.739 19.1093 5.71C18.9743 4.705 18.7203 4.125 18.2973 3.702C17.9123 3.317 17.3993 3.073 16.5573 2.93C15.6933 2.784 14.5643 2.756 12.9973 2.75C12.7988 2.74947 12.6085 2.67022 12.4683 2.52962C12.3281 2.38903 12.2493 2.19857 12.2493 2ZM10.2693 2.451C10.3736 2.45094 10.4767 2.47261 10.5721 2.51462C10.6674 2.55663 10.753 2.61807 10.8233 2.695L11.5533 3.495C11.6535 3.60467 11.7189 3.74162 11.7412 3.88849C11.7634 4.03536 11.7416 4.18553 11.6784 4.31997C11.6152 4.4544 11.5135 4.56704 11.3862 4.6436C11.2589 4.72016 11.1117 4.75719 10.9633 4.75C10.6353 6.971 8.86535 8.75 6.61934 8.75C5.36934 8.75 4.25134 8.188 3.46134 7.31C3.39542 7.23679 3.34456 7.15131 3.31167 7.05844C3.27879 6.96557 3.26451 6.86714 3.26967 6.76876C3.27482 6.67037 3.2993 6.57397 3.34171 6.48504C3.38412 6.39612 3.44363 6.31642 3.51684 6.2505C3.59006 6.18458 3.67554 6.13372 3.7684 6.10083C3.86127 6.06794 3.95971 6.05367 4.05809 6.05882C4.15647 6.06397 4.25288 6.08846 4.3418 6.13087C4.43072 6.17328 4.51042 6.23279 4.57634 6.306C5.11034 6.9 5.83434 7.25 6.61934 7.25C7.94534 7.25 9.13935 6.22 9.44534 4.744C9.30904 4.72667 9.18011 4.67222 9.07263 4.58661C8.96516 4.50099 8.88327 4.3875 8.83591 4.25851C8.78855 4.12953 8.77753 3.99001 8.80406 3.85519C8.83059 3.72037 8.89364 3.59542 8.98635 3.494L9.71634 2.694C9.78666 2.61707 9.87225 2.55563 9.96763 2.51362C10.063 2.47161 10.1661 2.44994 10.2703 2.45L10.2693 2.451ZM8.24934 19C8.24934 18.8011 8.32836 18.6103 8.46902 18.4697C8.60967 18.329 8.80043 18.25 8.99934 18.25H14.9993C15.1983 18.25 15.389 18.329 15.5297 18.4697C15.6703 18.6103 15.7493 18.8011 15.7493 19C15.7493 19.1989 15.6703 19.3897 15.5297 19.5303C15.389 19.671 15.1983 19.75 14.9993 19.75H8.99934C8.80043 19.75 8.60967 19.671 8.46902 19.5303C8.32836 19.3897 8.24934 19.1989 8.24934 19Z" fill="#BABABA"/>
</g>
</svg>
