<svg width="16" height="16" viewBox="0 0 16 16" fill="none" xmlns="http://www.w3.org/2000/svg">
<path d="M10.6673 1.33301H5.33398C2.66732 1.33301 1.33398 2.66634 1.33398 5.33301V13.9997C1.33398 14.3663 1.63398 14.6663 2.00065 14.6663H10.6673C13.334 14.6663 14.6673 13.333 14.6673 10.6663V5.33301C14.6673 2.66634 13.334 1.33301 10.6673 1.33301Z" stroke="#6777EF" stroke-linecap="round" stroke-linejoin="round"/>
<path d="M8.60588 5.22677L5.14588 8.68677C5.01254 8.8201 4.88588 9.0801 4.85921 9.26677L4.67255 10.5868C4.60588 11.0668 4.93921 11.4001 5.41921 11.3334L6.7392 11.1468C6.92587 11.1201 7.18588 10.9934 7.31922 10.8601L10.7792 7.4001C11.3726 6.80677 11.6592 6.11343 10.7792 5.23343C9.89922 4.34677 9.20588 4.62677 8.60588 5.22677Z" stroke="#6777EF" stroke-miterlimit="10" stroke-linecap="round" stroke-linejoin="round"/>
<path d="M8.11328 5.71973C8.40661 6.76639 9.22661 7.59306 10.2799 7.88639" stroke="#6777EF" stroke-miterlimit="10" stroke-linecap="round" stroke-linejoin="round"/>
</svg>
