<svg width="24" height="24" viewBox="0 0 24 24" fill="none" xmlns="http://www.w3.org/2000/svg">
<path d="M0.5 11.7935C0.5 5.56999 5.61075 0.5 11.904 0.5C18.1964 0.5 23.308 5.57001 23.308 11.7935C23.308 18.0154 18.1964 23.0862 11.904 23.0862C5.61075 23.0862 0.5 18.0154 0.5 11.7935Z" stroke="#999999"/>
<path d="M7.46872 15.8797L7.46869 15.8798L7.47472 15.8846C8.43881 16.6539 10.1266 17.5697 11.8889 17.5649C13.6235 17.5601 15.3387 16.6521 16.2959 15.8908C16.3719 15.8359 16.4565 15.8161 16.5361 15.8262C18.0243 16.0587 19.4817 17.3728 20.4013 18.873L20.5417 19.1435C18.4482 21.5574 15.346 23.0883 11.8888 23.0883C8.44773 23.0883 5.35881 21.572 3.26583 19.178C3.41728 18.888 3.54987 18.645 3.61198 18.5457L3.61202 18.5457L3.61564 18.5397C4.51643 17.0528 5.73049 16.0544 7.24549 15.8257L7.25479 15.8243L7.26403 15.8225C7.32997 15.81 7.40333 15.8259 7.46872 15.8797ZM11.8458 6.97363C14.0442 6.97982 15.8149 8.73809 15.8211 10.8967C15.8208 13.0572 14.047 14.8185 11.8465 14.8185C9.64584 14.8185 7.87189 13.0568 7.87189 10.896C7.87189 8.73549 9.64548 6.97399 11.8458 6.97363Z" fill="white" stroke="#999999"/>
</svg>
