<svg width="16" height="17" viewBox="0 0 16 17" fill="none" xmlns="http://www.w3.org/2000/svg">
<path d="M8.0007 15.6663C4.53404 15.6663 1.7207 12.8463 1.7207 9.38628C1.7207 5.92628 4.53404 3.09961 8.0007 3.09961C8.71404 3.09961 9.40737 3.19961 10.074 3.40628C10.3407 3.48628 10.4874 3.76628 10.4074 4.03294C10.3274 4.29961 10.0474 4.44628 9.7807 4.36628C9.21404 4.19294 8.61404 4.09961 8.0007 4.09961C5.08737 4.09961 2.7207 6.46628 2.7207 9.37961C2.7207 12.2929 5.08737 14.6596 8.0007 14.6596C10.914 14.6596 13.2807 12.2929 13.2807 9.37961C13.2807 8.32628 12.974 7.31294 12.394 6.44628C12.2407 6.21961 12.3007 5.90628 12.534 5.75294C12.7607 5.59961 13.074 5.65961 13.2274 5.89294C13.9207 6.92628 14.2874 8.13294 14.2874 9.38628C14.2807 12.8463 11.4674 15.6663 8.0007 15.6663Z" fill="#6777EF"/>
<path d="M10.7536 4.54713C10.6136 4.54713 10.4736 4.48713 10.3736 4.3738L8.44696 2.16046C8.26696 1.9538 8.28696 1.6338 8.49363 1.4538C8.7003 1.2738 9.0203 1.2938 9.2003 1.50046L11.127 3.7138C11.307 3.92046 11.287 4.24046 11.0803 4.42046C10.9936 4.50713 10.8736 4.54713 10.7536 4.54713Z" fill="#6777EF"/>
<path d="M8.50746 6.18647C8.35413 6.18647 8.20079 6.11314 8.10079 5.97981C7.94079 5.75981 7.98746 5.44647 8.20746 5.27981L10.4541 3.63981C10.6741 3.47314 10.9875 3.52647 11.1541 3.74647C11.3208 3.96647 11.2675 4.27981 11.0475 4.44647L8.80079 6.09314C8.71413 6.15981 8.61413 6.18647 8.50746 6.18647Z" fill="#6777EF"/>
</svg>
