<svg width="24" height="24" viewBox="0 0 24 24" fill="none" xmlns="http://www.w3.org/2000/svg">
<path fill-rule="evenodd" clip-rule="evenodd" d="M11.904 0C5.33901 0 0 5.28946 0 11.7935C0 18.2959 5.33901 23.5862 11.904 23.5862C18.4682 23.5862 23.808 18.2959 23.808 11.7935C23.808 5.28946 18.4682 0 11.904 0Z" fill="#6777EF"/>
<path fill-rule="evenodd" clip-rule="evenodd" d="M7.78658 15.4938C8.70207 16.2243 10.2817 17.0693 11.8876 17.0649C13.4743 17.0605 15.0873 16.2156 15.9918 15.4938C16.172 15.3593 16.391 15.3015 16.6076 15.3313C18.3122 15.5948 19.8823 17.0624 20.837 18.6271L21.1395 19.2098C18.9553 21.8792 15.6198 23.5883 11.8888 23.5883C8.17445 23.5883 4.85251 21.8948 2.66797 19.2464C2.8761 18.8381 3.0921 18.4341 3.188 18.2807C4.1386 16.7115 5.46423 15.5889 7.17087 15.3313C7.38785 15.2901 7.61075 15.349 7.78658 15.4938ZM11.8465 6.47363C14.315 6.48018 16.3145 8.45633 16.3211 10.896C16.3211 13.3385 14.3178 15.3185 11.8465 15.3185C9.37525 15.3185 7.37189 13.3385 7.37189 10.896C7.37189 8.45362 9.37525 6.47363 11.8465 6.47363Z" fill="white"/>
</svg>
