<svg width="24" height="25" viewBox="0 0 24 25" fill="none" xmlns="http://www.w3.org/2000/svg">
<path d="M13 12.1775H22M22 12.1775L18.667 8.17746M22 12.1775L18.667 16.1775M14 7.17746V5.35146C14 5.07484 13.9426 4.80122 13.8314 4.54791C13.7203 4.2946 13.5578 4.0671 13.3542 3.8798C13.1507 3.69249 12.9104 3.54945 12.6488 3.45971C12.3871 3.36998 12.1097 3.3355 11.834 3.35846L3.834 4.02446C3.33405 4.0661 2.86801 4.29411 2.5283 4.66327C2.18859 5.03243 2.00002 5.51578 2 6.01746V18.3375C2.00002 18.8391 2.18859 19.3225 2.5283 19.6917C2.86801 20.0608 3.33405 20.2888 3.834 20.3305L11.834 20.9975C12.1098 21.0204 12.3873 20.9859 12.649 20.8961C12.9107 20.8063 13.151 20.6632 13.3546 20.4758C13.5582 20.2884 13.7206 20.0608 13.8317 19.8073C13.9428 19.5539 14.0001 19.2802 14 19.0035V17.1775" stroke="#BABABA" stroke-width="2" stroke-linecap="round" stroke-linejoin="round"/>
</svg>
